<svg width="20" height="20" viewBox="0 0 20 20" fill="none" xmlns="http://www.w3.org/2000/svg">
<g clip-path="url(#clip0_2035_5501)">
<path d="M12.5 15H8.33331" stroke="white" stroke-width="1.5" stroke-linecap="round" stroke-linejoin="round"/>
<path d="M15 11.6666H8.33331" stroke="white" stroke-width="1.5" stroke-linecap="round" stroke-linejoin="round"/>
<path d="M3.33335 18.3333H16.6667C17.1087 18.3333 17.5326 18.1577 17.8452 17.8451C18.1578 17.5326 18.3334 17.1087 18.3334 16.6666V3.33329C18.3334 2.89127 18.1578 2.46734 17.8452 2.15478C17.5326 1.84222 17.1087 1.66663 16.6667 1.66663H6.66669C6.22466 1.66663 5.80074 1.84222 5.48818 2.15478C5.17561 2.46734 5.00002 2.89127 5.00002 3.33329V16.6666C5.00002 17.1087 4.82443 17.5326 4.51186 17.8451C4.1993 18.1577 3.77538 18.3333 3.33335 18.3333ZM3.33335 18.3333C2.89133 18.3333 2.4674 18.1577 2.15484 17.8451C1.84228 17.5326 1.66669 17.1087 1.66669 16.6666V9.16663C1.66669 8.7246 1.84228 8.30068 2.15484 7.98811C2.4674 7.67555 2.89133 7.49996 3.33335 7.49996H5.00002" stroke="white" stroke-width="1.5" stroke-linecap="round" stroke-linejoin="round"/>
<path d="M14.1666 5H9.16665C8.70641 5 8.33331 5.3731 8.33331 5.83333V7.5C8.33331 7.96024 8.70641 8.33333 9.16665 8.33333H14.1666C14.6269 8.33333 15 7.96024 15 7.5V5.83333C15 5.3731 14.6269 5 14.1666 5Z" stroke="white" stroke-width="1.5" stroke-linecap="round" stroke-linejoin="round"/>
</g>
<defs>
<clipPath id="clip0_2035_5501">
<rect width="20" height="20" fill="white"/>
</clipPath>
</defs>
</svg>
