<svg width="20" height="20" viewBox="0 0 20 20" fill="none" xmlns="http://www.w3.org/2000/svg">
<g clip-path="url(#clip0_2035_5507)">
<path d="M10.4884 2.15496C10.1759 1.84238 9.75201 1.66672 9.31002 1.66663H3.33335C2.89133 1.66663 2.4674 1.84222 2.15484 2.15478C1.84228 2.46734 1.66669 2.89127 1.66669 3.33329V9.30996C1.66678 9.75195 1.84244 10.1758 2.15502 10.4883L9.40835 17.7416C9.78712 18.118 10.2994 18.3292 10.8334 18.3292C11.3673 18.3292 11.8796 18.118 12.2584 17.7416L17.7417 12.2583C18.1181 11.8795 18.3293 11.3673 18.3293 10.8333C18.3293 10.2993 18.1181 9.78705 17.7417 9.40829L10.4884 2.15496Z" stroke="white" stroke-width="1.5" stroke-linecap="round" stroke-linejoin="round"/>
<path d="M6.24998 6.66671C6.4801 6.66671 6.66665 6.48016 6.66665 6.25004C6.66665 6.01992 6.4801 5.83337 6.24998 5.83337C6.01986 5.83337 5.83331 6.01992 5.83331 6.25004C5.83331 6.48016 6.01986 6.66671 6.24998 6.66671Z" fill="white" stroke="white" stroke-width="1.5" stroke-linecap="round" stroke-linejoin="round"/>
</g>
<defs>
<clipPath id="clip0_2035_5507">
<rect width="20" height="20" fill="white"/>
</clipPath>
</defs>
</svg>
