<svg width="21" height="21" viewBox="0 0 21 21" fill="none" xmlns="http://www.w3.org/2000/svg">
<path d="M13.8333 4.66663H18.8333" stroke="#64748B" stroke-width="1.5" stroke-linecap="round" stroke-linejoin="round"/>
<path d="M16.3333 2.16663V7.16663" stroke="#64748B" stroke-width="1.5" stroke-linecap="round" stroke-linejoin="round"/>
<path d="M18 10.0833V16.3333C18 16.7754 17.8244 17.1993 17.5118 17.5118C17.1993 17.8244 16.7754 18 16.3333 18H4.66667C4.22464 18 3.80072 17.8244 3.48816 17.5118C3.17559 17.1993 3 16.7754 3 16.3333V4.66667C3 4.22464 3.17559 3.80072 3.48816 3.48816C3.80072 3.17559 4.22464 3 4.66667 3H10.9167" stroke="#64748B" stroke-width="1.5" stroke-linecap="round" stroke-linejoin="round"/>
<path d="M18 13L15.4283 10.4283C15.1158 10.1158 14.6919 9.94031 14.25 9.94031C13.8081 9.94031 13.3842 10.1158 13.0717 10.4283L5.5 18" stroke="#64748B" stroke-width="1.5" stroke-linecap="round" stroke-linejoin="round"/>
<path d="M7.99998 9.66671C8.92045 9.66671 9.66665 8.92052 9.66665 8.00004C9.66665 7.07957 8.92045 6.33337 7.99998 6.33337C7.07951 6.33337 6.33331 7.07957 6.33331 8.00004C6.33331 8.92052 7.07951 9.66671 7.99998 9.66671Z" stroke="#64748B" stroke-width="1.5" stroke-linecap="round" stroke-linejoin="round"/>
</svg>
